<?xml version="1.0" standalone="no"?>
<!DOCTYPE svg PUBLIC "-//W3C//DTD SVG 20010904//EN"
 "http://www.w3.org/TR/2001/REC-SVG-20010904/DTD/svg10.dtd">
<svg version="1.0" xmlns="http://www.w3.org/2000/svg"
 width="1280.000000pt" height="918.000000pt" viewBox="0 0 1280.000000 918.000000"
 preserveAspectRatio="xMidYMid meet">
<metadata>
Created by potrace 1.15, written by Peter Selinger 2001-2017
</metadata>
<g transform="translate(0.000000,918.000000) scale(0.100000,-0.100000)"
fill="#000000" stroke="none">
<path d="M10326 9136 c-8 -12 -708 -1131 -1556 -2487 -848 -1355 -1546 -2469
-1551 -2475 -6 -7 -186 79 -541 257 -293 148 -538 268 -545 269 -6 0 -15 -9
-18 -20 -9 -28 -19 -26 -116 21 -69 34 -106 44 -209 60 -135 20 -579 86 -1740
259 -410 61 -954 142 -1210 180 -256 38 -800 119 -1210 180 -410 61 -940 140
-1178 175 -238 36 -437 65 -443 65 -6 0 -9 -17 -7 -39 3 -35 76 -118 1059
-1187 581 -632 1067 -1161 1081 -1175 l25 -26 -230 -444 -229 -444 33 -188 34
-188 87 93 c48 51 207 256 355 455 147 199 271 361 274 360 4 -1 136 -146 295
-322 l290 -320 69 -6 c39 -4 118 -10 176 -14 l106 -7 668 -874 c368 -481 670
-873 671 -871 2 2 24 50 50 108 25 57 49 107 53 112 4 4 68 -71 142 -168 102
-133 136 -172 145 -162 6 6 134 206 284 442 150 237 274 431 275 433 1 1 75
-62 165 -140 l164 -142 1051 -142 c577 -79 1637 -222 2355 -319 718 -96 1753
-236 2301 -310 548 -74 1009 -135 1023 -135 25 0 27 3 24 37 -3 36 -30 61
-688 631 -377 327 -1273 1104 -1991 1727 l-1306 1132 -367 127 c-202 69 -369
126 -371 126 -4 0 10 31 303 695 104 237 350 795 547 1240 196 446 415 941
485 1100 718 1626 1003 2272 1007 2285 2 9 -11 23 -36 36 l-40 22 -15 -22z
m-275 -633 c-5 -10 -77 -173 -161 -363 -84 -190 -220 -498 -302 -685 -146
-329 -259 -587 -616 -1395 -93 -212 -352 -799 -576 -1306 -223 -506 -406 -927
-406 -934 0 -8 -6 -10 -17 -5 -10 4 -94 33 -188 65 -246 85 -239 82 -224 90 8
5 -36 32 -122 75 -74 37 -135 69 -137 70 -2 2 373 605 834 1342 1094 1747
1864 2979 1893 3026 23 37 40 52 22 20z m-9346 -3083 c858 -127 1957 -290
2190 -325 221 -33 770 -115 1915 -285 1004 -149 1065 -159 1107 -178 l42 -18
-624 -985 c-344 -541 -628 -983 -632 -982 -4 1 -415 247 -913 547 -766 462
-907 544 -916 531 -6 -8 -19 -15 -27 -15 -19 0 -450 -70 -453 -73 0 -1 -41
-80 -89 -175 -49 -95 -92 -171 -96 -170 -7 3 -1978 2143 -2019 2193 -14 16
-13 17 15 11 17 -3 241 -37 500 -76z m5362 -857 c-3 -5 -94 -219 -202 -478
-109 -258 -269 -641 -357 -850 -88 -209 -203 -483 -255 -610 -53 -126 -99
-234 -103 -238 -4 -4 -86 40 -183 98 l-176 106 17 27 c313 504 1240 1952 1250
1952 7 0 11 -3 9 -7z m720 -295 c331 -167 602 -306 600 -310 -1 -4 -416 -350
-922 -769 -506 -419 -1012 -838 -1124 -931 -112 -93 -204 -168 -206 -166 -1 2
17 48 40 103 24 55 143 339 265 630 361 859 535 1276 637 1518 53 125 98 227
101 227 3 0 277 -136 609 -302z m706 -388 c1 -1 288 -99 636 -219 l635 -218
1913 -1658 c1051 -913 1911 -1661 1909 -1663 -2 -2 -188 22 -412 52 -225 31
-744 101 -1154 156 -410 55 -943 127 -1185 160 -899 122 -2233 301 -2979 402
l-769 103 -513 448 c-283 246 -514 451 -513 455 0 4 546 458 1212 1009 770
636 1213 997 1215 988 2 -8 4 -15 5 -15z m-4734 -332 c-241 -378 -886 -1369
-903 -1386 l-23 -23 -13 74 -12 75 303 588 c166 324 315 609 329 633 l26 45
159 26 c88 14 162 25 164 23 2 -1 -12 -26 -30 -55z m1251 -598 c597 -359 1088
-656 1092 -659 5 -4 -24 -81 -62 -171 -39 -91 -70 -170 -70 -177 0 -7 9 -17
20 -23 24 -13 18 -30 -11 -30 -19 0 -19 -5 -13 -87 15 -216 81 -1208 79 -1210
-1 -2 -499 647 -1108 1442 l-1106 1445 40 65 c23 36 44 63 48 62 3 -2 494
-298 1091 -657z m-203 -902 l1000 -1307 -30 -65 c-17 -36 -33 -66 -36 -65 -5
0 -1964 2562 -1982 2591 -4 7 -13 7 -25 0 -15 -8 -25 -6 -43 9 l-23 19 52 81
c51 77 54 79 70 62 10 -10 467 -606 1017 -1325z m-783 647 l326 -426 -108 7
c-59 4 -112 9 -118 13 -6 3 -138 147 -293 319 l-283 313 74 99 c40 55 74 99
75 100 1 0 148 -191 327 -425z m2354 -1209 c144 -125 262 -230 262 -233 0 -11
-483 -763 -487 -759 -5 4 -83 1147 -83 1214 l0 43 23 -18 c13 -10 141 -121
285 -247z"/>
</g>
</svg>
